<?xml version="1.0" encoding="UTF-8"?>
<svg width="70px" height="70px" viewBox="0 0 70 70" version="1.1" xmlns="http://www.w3.org/2000/svg" xmlns:xlink="http://www.w3.org/1999/xlink">
    <!-- Generator: Sketch 63.1 (92452) - https://sketch.com -->
    <title>web/svg/ic_flag_en_us</title>
    <desc>Created with Sketch.</desc>
    <defs>
        <circle id="path-1" cx="34.3529412" cy="34.1176471" r="34"></circle>
    </defs>
    <g id="Symbols" stroke="none" stroke-width="1" fill="none" fill-rule="evenodd">
        <g id="lang/C-D-E/English-en_us">
            <g id="en_us">
                <g id="flag-usa" transform="translate(0.647059, 0.882353)">
                    <mask id="mask-2" fill="white">
                        <use xlink:href="#path-1"></use>
                    </mask>
                    <use id="Mask" fill="#FFFFFF" xlink:href="#path-1"></use>
                    <rect id="rectangle" fill="#1B3D87" mask="url(#mask-2)" x="-13" y="-1.73223264" width="45.1654412" height="33.0632772"></rect>
                    <path d="M32.1654412,-1.73223264 L32.1654412,2.99109267 L92.3860294,2.99109267 L92.3860294,-1.73223264 L32.1654412,-1.73223264 L32.1654412,-1.73223264 Z M32.1654412,7.71441798 L32.1654412,12.4377433 L92.3860294,12.4377433 L92.3860294,7.71441798 L32.1654412,7.71441798 L32.1654412,7.71441798 Z M32.1654412,17.1610686 L32.1654412,21.8843939 L92.3860294,21.8843939 L92.3860294,17.1610686 L32.1654412,17.1610686 L32.1654412,17.1610686 Z M32.1654412,31.3310446 L92.3860294,31.3310446 L92.3860294,26.6077192 L32.1654412,26.6077192 L32.1654412,31.3310446 Z M-13,36.0543699 L-13,40.7776952 L92.3860294,40.7776952 L92.3860294,36.0543699 L-13,36.0543699 L-13,36.0543699 Z M-13,45.5010205 L-13,50.2243458 L92.3860294,50.2243458 L92.3860294,45.5010205 L-13,45.5010205 L-13,45.5010205 Z M-13,54.9476711 L-13,59.6709964 L92.3860294,59.6709964 L92.3860294,54.9476711 L-13,54.9476711 L-13,54.9476711 Z M-13,64.3943217 L-13,69.1176471 L92.3860294,69.1176471 L92.3860294,64.3943217 L-13,64.3943217 L-13,64.3943217 Z" id="stripe" fill="#ED4C49" mask="url(#mask-2)"></path>
                    <g id="stars" mask="url(#mask-2)" fill="#FFFFFF">
                        <g transform="translate(2.018382, 2.991093)" id="Star-2">
                            <polygon points="3.80055147 14.7603916 1.58825312 15.8550824 2.01076451 13.53649 0.220977542 11.8944538 2.69440229 11.5561757 3.80055147 9.44665063 4.90670065 11.5561757 7.3801254 11.8944538 5.59033843 13.53649 6.01284982 15.8550824"></polygon>
                            <polygon points="3.80055147 24.2070422 1.58825312 25.3017331 2.01076451 22.9831407 0.220977542 21.3411044 2.69440229 21.0028263 3.80055147 18.8933013 4.90670065 21.0028263 7.3801254 21.3411044 5.59033843 22.9831407 6.01284982 25.3017331"></polygon>
                            <polygon points="13.8373162 24.2070422 11.6250178 25.3017331 12.0475292 22.9831407 10.2577422 21.3411044 12.731167 21.0028263 13.8373162 18.8933013 14.9434654 21.0028263 17.4168901 21.3411044 15.6271031 22.9831407 16.0496145 25.3017331"></polygon>
                            <polygon points="23.8740809 24.2070422 21.6617825 25.3017331 22.0842939 22.9831407 20.294507 21.3411044 22.7679317 21.0028263 23.8740809 18.8933013 24.9802301 21.0028263 27.4536548 21.3411044 25.6638678 22.9831407 26.0863792 25.3017331"></polygon>
                            <polygon points="13.8373162 14.7603916 11.6250178 15.8550824 12.0475292 13.53649 10.2577422 11.8944538 12.731167 11.5561757 13.8373162 9.44665063 14.9434654 11.5561757 17.4168901 11.8944538 15.6271031 13.53649 16.0496145 15.8550824"></polygon>
                            <polygon points="23.8740809 14.7603916 21.6617825 15.8550824 22.0842939 13.53649 20.294507 11.8944538 22.7679317 11.5561757 23.8740809 9.44665063 24.9802301 11.5561757 27.4536548 11.8944538 25.6638678 13.53649 26.0863792 15.8550824"></polygon>
                            <polygon points="23.8740809 5.31374098 21.6617825 6.40843182 22.0842939 4.08983941 20.294507 2.44780314 22.7679317 2.10952507 23.8740809 0 24.9802301 2.10952507 27.4536548 2.44780314 25.6638678 4.08983941 26.0863792 6.40843182"></polygon>
                            <polygon points="13.8373162 5.31374098 11.6250178 6.40843182 12.0475292 4.08983941 10.2577422 2.44780314 12.731167 2.10952507 13.8373162 0 14.9434654 2.10952507 17.4168901 2.44780314 15.6271031 4.08983941 16.0496145 6.40843182"></polygon>
                        </g>
                    </g>
                </g>
                <g id="border" fill="#C5C5C2">
                    <path d="M35,0 C54.3299662,0 70,15.6700338 70,35 C70,54.3299662 54.3299662,70 35,70 C15.6700338,70 0,54.3299662 0,35 C0,15.6700338 15.6700338,0 35,0 Z M35,2 C16.7746033,2 2,16.7746033 2,35 C2,53.2253967 16.7746033,68 35,68 C53.2253967,68 68,53.2253967 68,35 C68,16.7746033 53.2253967,2 35,2 Z"></path>
                </g>
            </g>
        </g>
    </g>
</svg>