<svg xmlns="http://www.w3.org/2000/svg" width="193" height="24" viewBox="0 0 193 24">
    <path fill="#333" d="M85.17 5.455c.433-.158.526 0 .526.783s-.125.97-.65.97c-.34 0-.896-.157-1.267-.345-.833-.47-1.08-.094-.4.658.834.941.927 3.105.154 4.326-1.02 1.661-2.965 2.384-5.931 2.164-2.225-.158-2.41-.127-2.41.438 0 .534.248.596 2.596.596 4.88 0 7.012.815 7.445 2.852.465 2.07-1.575 4.86-4.078 5.613-1.668.502-5.313.658-6.58.281-2.256-.688-3.182-2.57-1.792-3.542.833-.596 3.058-.721 2.471-.125-.618.626-.402 1.726.432 2.414 1.08.848 4.11.91 5.685.093.864-.438 1.081-.72 1.081-1.472 0-1.285-.99-1.724-3.862-1.724-4.078 0-5.684-.877-5.684-3.04 0-.878.217-1.317 1.05-2.07l1.02-.939-.803-.597c-.989-.722-1.576-2.445-1.33-3.855.464-2.445 4.018-4.013 7.509-3.292 1.667.376 3.644.283 4.819-.187zm29.257.063c2.472 0 4.047.565 4.634 1.661.154.344.309 2.507.309 4.859 0 2.32.091 4.42.184 4.701.093.284.556.502 1.02.502.772.032.74.065-.433.783-1.637 1.034-3.615 1.066-4.572.062l-.71-.689-1.02.689c-2.472 1.694-5.561.252-5.592-2.633 0-1.598 1.237-2.79 3.708-3.541 2.346-.723 2.75-1.035 2.996-2.572.217-1.473-.833-2.696-2.533-2.978l-1.236-.187.897.784c2.285 2.005-.248 5.36-2.627 3.448-.804-.659-.927-2.224-.277-3.04.957-1.16 2.873-1.818 5.252-1.849zM147.79.626v9.727c.007 6.807.085 7.53.555 7.8.372.25-.247.313-2.317.344h-2.872v-1.694l-.65.721c-.339.376-.988.817-1.42 1.003-.402.158-1.267.282-1.885.282-2.595-.03-4.109-1.912-4.325-5.455-.185-3.103.31-4.764 1.946-6.331 1.576-1.537 3.183-1.943 5.098-1.255l1.266.439-.093-2.54c-.092-2.413-.124-2.57-.864-2.759-.434-.124.618-.218 2.409-.251l3.152-.03zm-43.342 3.166c.926-.91 1.019-.846 1.019.596v1.254h1.236c.895 0 1.236.125 1.236.47s-.34.47-1.236.47h-1.236v4.97c.006 4.8.185 5.275 1.7 4.998.431-.094.772-.062.772.063 0 .47-1.514 1.6-2.503 1.882-.586.188-1.266.312-1.513.312-.803-.03-2.38-.845-2.564-1.347-.093-.25-.216-2.759-.248-5.58-.061-4.891-.093-5.141-.71-5.298-.525-.157-.216-.376 1.36-1.161 1.111-.532 2.317-1.253 2.687-1.63zM31.85 5.518c1.575 0 2.069.155 2.996.877 1.39 1.066 2.04 2.32 2.04 3.95v1.254h-3.921c-2.713.005-2.876.065-2.876.627 0 1.098.834 2.76 1.668 3.323 1.112.722 3.367.44 4.386-.531.526-.504.743-.565.743-.252 0 .91-1.545 2.728-2.874 3.386-1.822.878-4.047.878-5.808-.063-1.05-.532-1.544-1.098-2.194-2.414-.957-1.882-1.08-3.292-.431-5.424.926-3.167 2.996-4.702 6.27-4.733zm118.132 1.88c1.762-2.259 7.414-2.634 9.268-.628.712.753.742 1.098.897 5.55l.154 4.734.773.187.774.187-.865.597c-.495.314-1.608.626-2.504.72-1.512.127-1.698.062-2.347-.752-.463-.596-.742-.782-.834-.5-.093.218-.556.594-1.02.846-.988.502-2.564.595-3.583.156-1.02-.408-1.668-1.566-1.668-3.01 0-1.724.987-2.696 3.552-3.573 2.224-.754 2.965-1.443 2.996-2.728.062-1.756-1.113-2.916-2.904-2.916-.618 0-.588.031.185.785 1.081 1.003 1.081 2.38 0 3.259-1.082.847-2.008.847-2.843-.061-.865-.91-.865-1.787-.031-2.853zM185.169.626l.001 9.727c.007 6.807.085 7.53.555 7.8.371.25-.247.313-2.317.344-2.656 0-2.872-.031-2.872-.628 0-.815-.248-.784-1.144.064-.494.47-1.205.72-2.317.783-3.212.25-4.881-1.883-4.881-6.177 0-3.635 1.483-6.175 3.985-6.896 1.421-.409 1.792-.376 3.213.125l1.174.439-.092-2.54c-.092-2.413-.123-2.57-.865-2.759-.432-.124.618-.218 2.41-.251l3.15-.03zM92.615.596c1.39-.377 4.787-.22 6.148.313.802.313.834.44.834 2.382 0 1.129-.124 2.038-.278 2.038-.156 0-.711-.782-1.237-1.725-1.082-1.91-1.667-2.349-3.244-2.349-1.39 0-2.347.91-2.347 2.225 0 1.443.371 1.912 3.399 4.201 3.46 2.602 4.077 3.448 4.076 5.487 0 1.976-.895 3.448-2.78 4.578-1.174.689-1.884.878-3.77.94-2.285.094-4.107-.188-5.282-.816-.493-.281-.586-.69-.586-2.665 0-2.507.309-2.947.927-1.411 1.111 2.729 3.398 4.64 5.066 4.201 1.575-.406 2.286-2.257 1.452-3.825-.216-.406-1.668-1.66-3.244-2.853-3.306-2.476-4.046-3.667-3.8-5.924.247-2.256 2.009-4.074 4.666-4.797zM17.33 5.643c3.675.03 3.893.064 3.12.501-.494.25-.864.69-.864.972 0 .69 2.255 8.245 2.47 8.245.247 0 2.163-7.305 2.163-8.245 0-.47-.125-.848-.31-.848-.154 0-.308-.125-.308-.313 0-.155.772-.312 1.73-.312h1.76l-.803.752c-.588.566-1.237 2.164-2.596 6.429l-1.76 5.673h-3.77l-1.791-5.55c-.99-3.072-2.038-5.956-2.379-6.427l-.618-.877zm26.226 1.441c1.823-1.975 4.418-2.161 5.84-.438.708.869.768 1.049.772 5.276v.943c.006 3.831.103 4.734.494 5.13.408.444.211.497-2.375.501h-.497c-2.41-.031-3.183-.093-2.781-.344.463-.283.525-.846.525-4.798v-.295c-.006-4.643-.157-5.03-1.761-4.846l-.865.095-.092 4.232c-.094 4.733 0 5.549.803 5.737.278.094-1.05.157-2.967.188-3.182.03-3.46 0-3.027-.47.741-.754.71-10.94-.031-11.788-.435-.502-.407-.558 1.852-.563h3.308v2.35zm83.967-.343c1.884-1.788 4.418-1.725 5.683.157.619.97.68 1.378.68 5.986l.001.602c.007 3.843.086 4.396.556 4.666.37.251-.402.314-2.811.345-3.059 0-3.306-.031-2.873-.502.4-.377.494-1.286.494-4.795v-.293c-.007-4.49-.188-4.876-1.762-4.693l-.864.095-.093 4.702c-.061 4.139-.03 4.734.464 5.078.432.346-.062.408-2.843.408h-.494c-2.727-.005-2.786-.06-2.348-.563.433-.503.526-1.411.526-5.958v-.62c-.004-4.568-.059-4.759-.68-5.21-.61-.444-.51-.497 1.849-.501h3.465v2.1zM65.12 6.74c1.73-1.632 4.109-1.756 5.5-.251.679.72.71 1.034.802 5.987.062 4.421.186 5.3.588 5.644.43.314-.094.376-2.875.377-2.44-.032-3.213-.094-2.811-.345.463-.283.525-.846.525-4.798v-.295c-.006-4.643-.157-5.03-1.76-4.846l-.866.095-.093 4.702c-.061 4.139-.03 4.734.465 5.078.431.346-.063.408-2.813.408h-.492c-2.56-.005-2.758-.058-2.35-.502.743-.753.71-10.94-.03-11.787-.435-.502-.408-.558 1.851-.563h3.309v2.1zm-8.188-1.097l.093 5.987c.09 5.263.15 5.968.618 6.376l.062.051c.556.377.216.439-2.842.439h-3.46l.618-.628c.53-.537.612-.991.618-5.12v-.95c-.005-3.835-.103-4.917-.494-5.464l-.464-.69h5.251zm110.165 0l-.093 5.36c-.123 5.548.093 7.023 1.112 7.274.309.094-1.112.157-3.09.188l-3.644.03.648-.656c.588-.598.619-.943.526-5.926-.093-4.859-.155-5.33-.71-5.769-.556-.438-.372-.471 2.316-.5h2.935zm22.613 7.523c1.39 0 1.916.282 2.41 1.285.648 1.254.587 1.976-.34 3.072-.618.785-1.05.972-1.978.972-.927 0-1.359-.187-1.977-.972-.865-1.034-.988-1.849-.432-2.884.525-1 1.205-1.44 2.317-1.473zM14.33.626V2.79c0 1.222-.091 2.256-.246 2.35-.125.064-.68-.627-1.267-1.537-1.173-1.88-1.946-2.349-3.892-2.349h-1.39v7.837h1.203c1.268 0 2.226-.815 2.658-2.226l.037-.109c.443-1.275.736-.156.736 2.806 0 1.818-.124 3.291-.279 3.291-.154 0-.432-.438-.65-.94-.524-1.254-1.42-1.882-2.78-1.882h-1.08l.092 3.669c.063 2.413.217 3.76.465 3.917.587.377 2.317.283 3.46-.187.741-.345 1.421-1.034 2.224-2.35.648-1.035 1.298-1.881 1.422-1.914.246 0 .03 3.637-.28 4.796-.145.475-.707.528-6.45.532H7.288c-6.425-.03-7.199-.061-6.363-.438.554-.251 1.049-.751 1.142-1.16.339-1.253.246-14.075-.093-14.702-.185-.344-.71-.815-1.174-1.067C.058.69.646.657 7.163.627h7.169zm165.713 6.335c-.526-.784-1.577-.91-2.472-.251-.495.375-.587.908-.68 3.793-.124 3.761.06 5.234.74 5.955.68.691 1.854.596 2.41-.219.402-.533.495-1.598.495-4.639 0-3.041-.092-4.107-.493-4.639zm-37.415-.127c-.618-.69-1.73-.72-2.379-.063-.74.722-.71 8.747.032 9.593.619.69 1.73.72 2.379.063.742-.72.71-8.746-.032-9.593zm-27.925 4.296l-.895 1.096c-1.113 1.317-1.36 3.01-.588 3.982.186.22.618.407.927.407.524 0 .587-.25.588-2.728l-.032-2.757zm40.81.061l-.65.598c-.804.721-1.514 2.098-1.514 2.851 0 .314.216.91.494 1.284.247.38.742.691 1.08.691.527 0 .59-.25.59-2.728v-2.696zm-76.4-4.734c-.494-.657-1.327-.375-1.575.533-.309 1.159-.216 5.235.124 5.893.371.69.927.784 1.483.221.525-.533.494-5.925-.031-6.647zm-47.48-.188c-.773 0-1.236.879-1.453 2.823l-.185 1.567h2.873v-1.6c0-1.849-.401-2.79-1.235-2.79zM167.56 7.744c0-2.164 2.78-3.073 4.201-1.349.989 1.128.926 1.912-.154 3.04-1.667 1.694-4.047.69-4.047-1.691zM54.8 0c1.175 0 2.473 1.223 2.473 2.29 0 .407-.278 1.127-.65 1.598-.493.626-.895.815-1.822.815-1.359 0-2.47-1.1-2.471-2.414C52.33 1.222 53.628 0 54.8 0z" opacity=".395"/>
</svg>
