<?xml version="1.0" encoding="utf-8"?>
<!-- Generator: Adobe Illustrator 16.0.0, SVG Export Plug-In . SVG Version: 6.00 Build 0)  -->
<!DOCTYPE svg PUBLIC "-//W3C//DTD SVG 1.1//EN" "http://www.w3.org/Graphics/SVG/1.1/DTD/svg11.dtd">
<svg version="1.1" id="Layer_2" xmlns="http://www.w3.org/2000/svg" xmlns:xlink="http://www.w3.org/1999/xlink" x="0px" y="0px"
	 width="66px" height="66px" viewBox="0 0 66 66" enable-background="new 0 0 66 66" xml:space="preserve">
<path fill-rule="evenodd" clip-rule="evenodd" fill="none" stroke="#FFFFFF" stroke-width="3" stroke-miterlimit="10" d="
	M15.197,48.354c-3.578-4.149-5.743-9.561-5.743-15.481c0-13.063,10.539-23.653,23.54-23.653c12.998,0,23.538,10.59,23.538,23.653
	c0,12.706-9.974,23.073-22.482,23.63l0.023,0.036l-19.941,0.758c-0.329,0.012-0.654-0.054-0.951-0.199
	c-0.996-0.483-1.411-1.679-0.928-2.677L15.197,48.354z"/>
<circle fill-rule="evenodd" clip-rule="evenodd" fill="#FCFCFC" cx="26.719" cy="33.52" r="3.004"/>
<path fill-rule="evenodd" clip-rule="evenodd" fill="#FFFFFF" d="M39.74,36.524c1.657,0,3.006-1.344,3.006-3.004
	c0-1.66-1.349-3.004-3.006-3.004s-3.006,1.345-3.006,3.004C36.734,35.181,38.083,36.524,39.74,36.524z"/>
</svg>
