<svg xmlns="http://www.w3.org/2000/svg" width="150" height="150" viewBox="0 0 150 150">
    <g fill="none" fill-rule="evenodd" stroke="#343434">
        <circle cx="75" cy="75" r="73.5" stroke-width="3" opacity=".5"/>
        <path stroke-width="4" d="M76.004 101.424a23.577 23.577 0 0 0 2.82-1.057c3.328-1.482 7.038-3.907 11.212-7.586C99.309 84.608 102 79.586 102 70.831 102 58.791 90.141 49 75 49c-14.287 0-26 9.91-26 21.83 0 11.847 11.717 21.76 25.948 21.831 2.304-.06 3.07 1.745 2.734 3.765-.155.937-.482 1.913-1.148 3.628l-.1.258c-.171.439-.313.803-.43 1.112z"/>
    </g>
</svg>
