<?xml version="1.0" encoding="UTF-8"?>
<svg width="500px" height="101px" viewBox="0 0 500 101" version="1.1" xmlns="http://www.w3.org/2000/svg" xmlns:xlink="http://www.w3.org/1999/xlink">
    <!-- Generator: Sketch 53.2 (72643) - https://sketchapp.com -->
    <title>Artboard Copy</title>
    <desc>Created with Sketch.</desc>
    <defs>
        <polygon id="path-1" points="0.8229 0.305 100.5189 0.305 100.5189 99.9995 0.8229 99.9995"></polygon>
        <polygon id="path-3" points="0.0001 0.305 99.6961 0.305 99.6961 100 0.0001 100"></polygon>
    </defs>
    <g id="Artboard-Copy" stroke="none" stroke-width="1" fill="none" fill-rule="evenodd">
        <g id="Group-19">
            <path d="M215.5356,42.4999 L198.9596,42.4999 L198.9596,59.2179 C198.9596,64.9329 201.9816,67.0109 205.8076,67.0109 C208.7356,67.0109 211.8996,65.5469 214.4026,64.0349 L218.9356,73.6689 C214.9216,76.4079 210.2936,78.4859 203.7766,78.4859 C192.4426,78.4859 186.6336,72.0629 186.6336,60.2099 L186.6336,42.4999 L177.8026,42.4999 L177.8026,31.5429 L186.6336,31.5429 L186.6336,19.2919 L198.9596,15.9189 L198.9596,31.5429 L215.5356,31.5429 L215.5356,42.4999 Z" id="Fill-1" fill="#FEFEFE"></path>
            <path d="M231.2573,54.4003 C231.2573,61.3903 235.8383,67.0103 243.0643,67.0103 C250.1003,67.0103 254.8703,61.6263 254.8703,54.4003 C254.8703,47.1753 250.1003,41.7913 243.0643,41.7913 C235.8383,41.7913 231.2573,47.4123 231.2573,54.4003 L231.2573,54.4003 Z M266.5353,77.3053 L254.4923,77.3053 L254.4923,72.2523 C251.5173,75.9363 247.0773,78.4863 240.7973,78.4863 C228.1873,78.4863 218.6483,68.1433 218.6483,54.4003 C218.6483,40.6583 228.1873,30.3163 240.7973,30.3163 C247.0773,30.3163 251.4693,32.8653 254.4923,36.5963 L254.4923,31.5433 L266.5353,31.5433 L266.5353,77.3053 Z" id="Fill-3" fill="#FEFEFE"></path>
            <path d="M317.252,48.1674 L317.252,77.3054 L304.926,77.3054 L304.926,52.1334 C304.926,45.5224 301.619,41.8864 296,41.8864 C290.711,41.8864 286.318,45.3334 286.318,52.2284 L286.318,77.3054 L273.992,77.3054 L273.992,31.5434 L285.988,31.5434 L285.988,36.9274 C289.246,32.0634 294.252,30.3154 299.447,30.3154 C309.837,30.3154 317.252,37.5414 317.252,48.1674" id="Fill-5" fill="#FEFEFE"></path>
            <path d="M334.8662,54.4003 C334.8662,61.3903 339.4462,67.0103 346.6722,67.0103 C353.7092,67.0103 358.4782,61.6263 358.4782,54.4003 C358.4782,47.1753 353.7092,41.7913 346.6722,41.7913 C339.4462,41.7913 334.8662,47.4123 334.8662,54.4003 M357.8642,36.3133 L357.8642,9.3003 L370.1432,9.3003 L370.1432,77.3053 L358.1002,77.3053 L358.1002,72.2523 C355.1252,75.9363 350.6862,78.4863 344.4052,78.4863 C331.7962,78.4863 322.2562,68.1433 322.2562,54.4003 C322.2562,40.6583 331.7962,30.3163 344.4052,30.3163 C350.5452,30.3163 354.8892,32.7243 357.8642,36.3133" id="Fill-7" fill="#FEFEFE"></path>
            <path d="M388.4199,50.1035 L408.6789,50.1035 C407.5459,44.2475 404.0039,40.9415 398.7139,40.9415 C392.9059,40.9415 389.5049,44.4365 388.4199,50.1035 M421.0529,54.3545 C421.0529,55.7705 420.9579,57.4705 420.8159,58.5095 L388.3719,58.5095 C389.6939,65.1215 394.3229,68.0015 400.1309,68.0015 C404.0989,68.0015 408.3959,66.3965 411.7009,63.6095 L418.9279,71.5435 C413.7319,76.3135 407.1209,78.4865 399.4229,78.4865 C385.3979,78.4865 375.6679,68.9465 375.6679,54.5415 C375.6679,40.1385 385.1129,30.3155 398.8089,30.3155 C411.9849,30.3155 421.0049,40.0915 421.0529,54.3545" id="Fill-9" fill="#FEFEFE"></path>
            <path d="M500,48.1674 L500,77.3054 L487.721,77.3054 L487.721,52.1334 C487.721,45.5224 484.368,41.8864 478.795,41.8864 C473.506,41.8864 469.114,45.3334 469.114,52.2284 L469.114,77.3054 L456.788,77.3054 L456.788,52.1334 C456.788,45.5224 453.482,41.8864 447.862,41.8864 C442.573,41.8864 438.182,45.3334 438.182,52.2284 L438.182,77.3054 L425.855,77.3054 L425.855,31.5434 L437.851,31.5434 L437.851,36.9274 C441.109,32.0634 446.115,30.3154 451.31,30.3154 C457.922,30.3154 463.353,33.2914 466.422,38.1554 C469.964,32.3464 475.962,30.3154 481.96,30.3154 C492.728,30.3154 500,37.5414 500,48.1674" id="Fill-11" fill="#FEFEFE"></path>
            <g id="Group-15" transform="translate(57.000000, 0.695400)">
                <mask id="mask-2" fill="white">
                    <use xlink:href="#path-1"></use>
                </mask>
                <g id="Clip-14"></g>
                <path d="M50.6709,0.3045 C42.9599,0.3045 35.6589,2.0575 29.1419,5.1835 C21.5729,8.8135 15.0719,14.3045 10.2099,21.0545 C4.3099,29.2435 0.8229,39.2875 0.8229,50.1525 C0.8229,61.0165 4.3099,71.0615 10.2099,79.2505 C12.5109,77.8715 14.6339,76.2285 16.5399,74.3625 C11.6729,67.5215 8.7989,59.1685 8.7989,50.1525 C8.7989,41.1365 11.6729,32.7835 16.5399,25.9425 C21.2449,19.3275 27.8179,14.1375 35.4869,11.1415 C40.1979,9.3015 45.3159,8.2805 50.6709,8.2805 L92.5429,8.2805 L92.5429,50.1525 C92.5429,73.2415 73.7589,92.0245 50.6709,92.0245 C45.3159,92.0245 40.1979,91.0025 35.4869,89.1625 C33.5259,91.3045 31.4019,93.2935 29.1419,95.1205 C35.6589,98.2465 42.9599,99.9995 50.6709,99.9995 C78.2009,99.9995 100.5189,77.6825 100.5189,50.1525 L100.5189,0.3045 L50.6709,0.3045 Z" id="Fill-13" fill="#FEFEFE" mask="url(#mask-2)"></path>
            </g>
            <g id="Group-18" transform="translate(0.000000, 0.695400)">
                <mask id="mask-4" fill="white">
                    <use xlink:href="#path-3"></use>
                </mask>
                <g id="Clip-17"></g>
                <path d="M90.3091,21.054 C88.0081,22.432 85.8851,24.076 83.9791,25.942 C88.8461,32.783 91.7201,41.136 91.7201,50.152 C91.7201,59.169 88.8461,67.521 83.9791,74.362 C79.2741,80.976 72.7011,86.168 65.0321,89.163 C60.3211,91.003 55.2031,92.024 49.8481,92.024 L7.9761,92.024 L7.9761,50.152 C7.9761,27.064 26.7601,8.281 49.8481,8.281 C55.2031,8.281 60.3201,9.302 65.0321,11.142 C66.9931,9 69.1171,7.011 71.3771,5.183 C64.8601,2.057 57.5591,0.304 49.8481,0.304 C22.3181,0.304 0.0001,22.622 0.0001,50.152 L0.0001,100 L49.8481,100 C57.5591,100 64.8601,98.247 71.3771,95.122 C78.9461,91.491 85.4461,86.001 90.3091,79.25 C96.2091,71.06 99.6961,61.016 99.6961,50.152 C99.6961,39.288 96.2091,29.243 90.3091,21.054" id="Fill-16" fill="#FEFEFE" mask="url(#mask-4)"></path>
            </g>
        </g>
    </g>
</svg>