<?xml version="1.0" encoding="UTF-8"?>
<svg width="500px" height="101px" viewBox="0 0 500 101" version="1.1" xmlns="http://www.w3.org/2000/svg" xmlns:xlink="http://www.w3.org/1999/xlink">
    <!-- Generator: Sketch 53.2 (72643) - https://sketchapp.com -->
    <title>Artboard</title>
    <desc>Created with Sketch.</desc>
    <defs>
        <polygon id="path-1" points="0.0002 0.305 78.7592 0.305 78.7592 100 0.0002 100"></polygon>
        <polygon id="path-3" points="0.7589 0.305 79.5189 0.305 79.5189 99.9996 0.7589 99.9996"></polygon>
    </defs>
    <g id="Artboard" stroke="none" stroke-width="1" fill="none" fill-rule="evenodd">
        <g id="Group-22">
            <g id="Group-21">
                <path d="M215.5356,42.5 L198.9596,42.5 L198.9596,59.218 C198.9596,64.933 201.9816,67.011 205.8076,67.011 C208.7356,67.011 211.8996,65.547 214.4026,64.035 L218.9356,73.669 C214.9216,76.408 210.2936,78.486 203.7766,78.486 C192.4426,78.486 186.6336,72.063 186.6336,60.21 L186.6336,42.5 L177.8026,42.5 L177.8026,31.543 L186.6336,31.543 L186.6336,19.292 L198.9596,15.919 L198.9596,31.543 L215.5356,31.543 L215.5356,42.5 Z" id="Fill-1" fill="#231F20"></path>
                <path d="M231.2573,54.4003 C231.2573,61.3903 235.8383,67.0103 243.0643,67.0103 C250.1003,67.0103 254.8703,61.6263 254.8703,54.4003 C254.8703,47.1753 250.1003,41.7913 243.0643,41.7913 C235.8383,41.7913 231.2573,47.4123 231.2573,54.4003 L231.2573,54.4003 Z M266.5353,77.3053 L254.4923,77.3053 L254.4923,72.2523 C251.5173,75.9363 247.0773,78.4863 240.7973,78.4863 C228.1873,78.4863 218.6483,68.1433 218.6483,54.4003 C218.6483,40.6583 228.1873,30.3163 240.7973,30.3163 C247.0773,30.3163 251.4693,32.8653 254.4923,36.5963 L254.4923,31.5433 L266.5353,31.5433 L266.5353,77.3053 Z" id="Fill-3" fill="#231F20"></path>
                <path d="M317.252,48.1674 L317.252,77.3054 L304.926,77.3054 L304.926,52.1334 C304.926,45.5224 301.619,41.8864 296,41.8864 C290.711,41.8864 286.318,45.3334 286.318,52.2284 L286.318,77.3054 L273.992,77.3054 L273.992,31.5434 L285.988,31.5434 L285.988,36.9274 C289.246,32.0634 294.252,30.3154 299.447,30.3154 C309.837,30.3154 317.252,37.5414 317.252,48.1674" id="Fill-5" fill="#231F20"></path>
                <path d="M334.8662,54.4003 C334.8662,61.3903 339.4462,67.0103 346.6722,67.0103 C353.7092,67.0103 358.4782,61.6263 358.4782,54.4003 C358.4782,47.1753 353.7092,41.7913 346.6722,41.7913 C339.4462,41.7913 334.8662,47.4123 334.8662,54.4003 M357.8642,36.3133 L357.8642,9.3003 L370.1432,9.3003 L370.1432,77.3053 L358.1002,77.3053 L358.1002,72.2523 C355.1252,75.9363 350.6862,78.4863 344.4052,78.4863 C331.7962,78.4863 322.2562,68.1433 322.2562,54.4003 C322.2562,40.6583 331.7962,30.3163 344.4052,30.3163 C350.5452,30.3163 354.8892,32.7243 357.8642,36.3133" id="Fill-7" fill="#231F20"></path>
                <path d="M388.4199,50.1035 L408.6789,50.1035 C407.5459,44.2475 404.0039,40.9415 398.7139,40.9415 C392.9059,40.9415 389.5049,44.4365 388.4199,50.1035 M421.0529,54.3545 C421.0529,55.7705 420.9579,57.4705 420.8159,58.5095 L388.3719,58.5095 C389.6939,65.1215 394.3229,68.0015 400.1309,68.0015 C404.0989,68.0015 408.3959,66.3965 411.7009,63.6095 L418.9279,71.5435 C413.7319,76.3135 407.1209,78.4865 399.4229,78.4865 C385.3979,78.4865 375.6679,68.9465 375.6679,54.5415 C375.6679,40.1385 385.1129,30.3155 398.8089,30.3155 C411.9849,30.3155 421.0049,40.0915 421.0529,54.3545" id="Fill-9" fill="#231F20"></path>
                <path d="M500,48.1674 L500,77.3054 L487.721,77.3054 L487.721,52.1334 C487.721,45.5224 484.368,41.8864 478.795,41.8864 C473.506,41.8864 469.114,45.3334 469.114,52.2284 L469.114,77.3054 L456.788,77.3054 L456.788,52.1334 C456.788,45.5224 453.482,41.8864 447.862,41.8864 C442.573,41.8864 438.182,45.3334 438.182,52.2284 L438.182,77.3054 L425.855,77.3054 L425.855,31.5434 L437.851,31.5434 L437.851,36.9274 C441.109,32.0634 446.115,30.3154 451.31,30.3154 C457.922,30.3154 463.353,33.2914 466.422,38.1554 C469.964,32.3464 475.962,30.3154 481.96,30.3154 C492.728,30.3154 500,37.5414 500,48.1674" id="Fill-11" fill="#231F20"></path>
                <g id="Group-15" transform="translate(0.000000, 0.695400)">
                    <mask id="mask-2" fill="white">
                        <use xlink:href="#path-1"></use>
                    </mask>
                    <g id="Clip-14"></g>
                    <path d="M57.8232,50.1522 C57.8232,33.4042 66.0922,18.5972 78.7592,9.5582 C70.6042,3.7392 60.6302,0.3042 49.8472,0.3042 C22.3182,0.3042 0.0002,22.6222 0.0002,50.1522 L0.0002,100.0002 L49.8472,100.0002 C60.6302,100.0002 70.6042,96.5652 78.7592,90.7462 C66.0922,81.7082 57.8232,66.9002 57.8232,50.1522" id="Fill-13" fill="#30C0D6" mask="url(#mask-2)"></path>
                </g>
                <g id="Group-18" transform="translate(78.000000, 0.695400)">
                    <mask id="mask-4" fill="white">
                        <use xlink:href="#path-3"></use>
                    </mask>
                    <g id="Clip-17"></g>
                    <path d="M29.6709,0.3046 C18.8889,0.3046 8.9149,3.7396 0.7589,9.5586 C13.4269,18.5966 21.6959,33.4046 21.6959,50.1526 C21.6959,66.9006 13.4269,81.7076 0.7589,90.7456 C8.9149,96.5656 18.8889,99.9996 29.6709,99.9996 C57.2009,99.9996 79.5189,77.6826 79.5189,50.1526 L79.5189,0.3046 L29.6709,0.3046 Z" id="Fill-16" fill="#EA5580" mask="url(#mask-4)"></path>
                </g>
                <path d="M99.6958,50.8476 C99.6958,34.0996 91.4268,19.2926 78.7588,10.2536 C66.0918,19.2926 57.8228,34.0996 57.8228,50.8476 C57.8228,67.5956 66.0918,82.4036 78.7588,91.4416 C91.4268,82.4036 99.6958,67.5956 99.6958,50.8476" id="Fill-19" fill="#2D5380"></path>
            </g>
        </g>
    </g>
</svg>