<svg xmlns="http://www.w3.org/2000/svg" width="310" height="140" viewBox="0 0 310 140">
    <g fill="#333">
        <path d="M260.703 122.117c2.052 1.237 3.852 2.853 5.966 4.41-4.635 4.317-9.393 7.17-15.558 6.766-.732-.04-1.476.022-2.177.069-1.667-.398-3.292-.81-4.89-1.281-.867-.576-1.763-1.094-2.63-1.67-3.849-2.562-3.917-6.232.135-8.356 6.269-3.325 12.781-3.721 19.154.062zm17.92-15.027c-4.58 7.419-12.597 10.56-20.713 7.988-1.448-.452-3.018-1.81-3.671-3.153-.843-1.752.663-3.22 1.942-4.373 5.897-5.402 15.781-5.623 22.443-.462zm-7.688-67.95c.31.76.663 1.504.93 2.279 5.705 16.569 3.369 32.44-4.647 47.62-7.902 14.948-19.435 26.766-32.813 36.86-.5.365-.943.758-1.443 1.123l-.09-.259c5.41-4.847 10.98-9.509 16.114-14.598 8.941-8.855 16.258-18.932 20.951-30.753 5.256-13.267 5.802-26.645 1.177-40.216-.208-.602-.387-1.263-.179-2.057zm-35.922 55.83c6.558 6.587 7.633 17.128 2.615 24.672-1.108 1.68-2.463 3.204-4.684 3.055-2.263-.134-3.474-1.832-4.211-3.693-3.302-8.188-2.072-17.216 6.28-24.034zM246.58 83.7c7.138 4.965 9.574 15.358 5.565 22.523-1.907 3.453-5.011 3.702-7.239.275-3.8-5.922-4.427-12.165-1.091-18.52.793-1.43 1.774-2.732 2.765-4.278zm33.939 3.038c2.461.163 4.931 1.188 7.57 1.867-3.395 7.324-8.813 10.729-16.368 10.445-1.021-.033-2.102-.238-3.098-.617-2.282-.897-3.064-2.888-1.66-4.959 3.219-4.763 7.886-6.995 13.556-6.736zm-27.035-14.003c3.455 1.312 6.396 3.38 8.36 6.552 2.067 3.33 2.806 7.022 2.3 10.902-.434 3.662-3.175 4.846-6.26 2.78-6.04-4.03-8.333-14.068-4.4-20.234zm28.972-6.194c2.175-.797 4.486-1.056 6.751-1.591 1.176 7.46-4.414 15.49-11.214 16.66-3.314.554-5.202-1.58-4.146-5.07 1.413-4.541 4.018-8.271 8.61-9.999zm-22.358-7.425c6.89 1.853 11.926 9.881 10.61 16.649-.627 3.13-2.668 4.076-5.423 2.401-5.853-3.521-8.473-12.916-5.187-19.05zm26.638-12.011c2.042 5.79 0 12.212-4.885 15.154-1.005.589-2.634 1.053-3.521.583-.872-.427-1.569-2.029-1.624-3.173-.31-5.951 3.929-11.19 10.03-12.564zm-26.697 1.076c6.062-.498 12.214 4.657 12.721 10.552.233 2.473-1.118 3.66-3.533 3.143-5.685-1.173-9.842-7.304-9.188-13.695zm20.855-17.256c2.806 4.615 1.624 10.937-2.633 14.263-2.303 1.795-4.208 1.067-4.713-1.812-1.007-5.186 2.168-10.525 7.346-12.45zm-22.211 6.058c5.252-.842 10.47 2.099 12.394 6.994 1.125 2.85-.14 4.591-3.091 4.206-5.158-.689-9.49-5.915-9.303-11.2zm14.859-17.658c2.905 4.335 2.938 9.219-.055 12.697-.608.699-1.738 1.382-2.532 1.264-.695-.104-1.47-1.257-1.798-2.074-1.666-4.566.262-9.635 4.385-11.887zm-19.78 8.075c5.084-1.364 9.37.004 11.83 3.785.542.874 1.034 2.44.606 3.021-.556.77-2.024 1.276-3.107 1.215-4.476-.098-7.955-3.19-9.328-8.02zm5.925-5.957c.693.734 1.422 2.284 1.091 2.885-.504.806-1.944 1.448-2.951 1.503-4.264.105-7.188-2.003-8.99-6.103 4.189-1.88 8.05-1.312 10.85 1.715zm6.343-10.696c2.894 3.19 3.283 6.715 1.642 10.408-.442.97-1.738 2.283-2.449 2.191-.929-.161-2.084-1.4-2.44-2.433-1.317-3.686-.026-7.548 3.247-10.166zm-15.336-3.813c4.372.446 8 4.432 7.784 8.505-.115 1.8-1.226 2.564-2.995 1.983-3.977-1.296-6.335-6.434-4.789-10.488zM49.442 122.117c-2.052 1.237-3.852 2.853-5.967 4.41 4.636 4.317 9.394 7.17 15.56 6.766.73-.04 1.475.022 2.176.069 1.667-.398 3.292-.81 4.89-1.281.867-.576 1.763-1.094 2.63-1.67 3.849-2.562 3.917-6.232-.135-8.356-6.27-3.325-12.781-3.721-19.154.062zm-17.92-15.027c4.58 7.419 12.597 10.56 20.713 7.988 1.448-.452 3.017-1.81 3.671-3.153.843-1.752-.663-3.22-1.942-4.373-5.897-5.402-15.781-5.623-22.443-.462zm7.687-67.95c-.31.76-.662 1.504-.929 2.279-5.705 16.569-3.37 32.44 4.646 47.62 7.903 14.948 19.436 26.766 32.814 36.86.5.365.943.758 1.443 1.123l.089-.259c-5.41-4.847-10.98-9.509-16.113-14.598-8.941-8.855-16.258-18.932-20.951-30.753-5.256-13.267-5.802-26.645-1.177-40.216.207-.602.387-1.263.178-2.057zm35.923 55.83c-6.558 6.587-7.633 17.128-2.615 24.672 1.108 1.68 2.463 3.204 4.683 3.055 2.264-.134 3.475-1.832 4.212-3.693 3.302-8.188 2.072-17.216-6.28-24.034zM63.566 83.7c-7.139 4.965-9.574 15.358-5.565 22.523 1.907 3.453 5.011 3.702 7.239.275 3.8-5.922 4.427-12.165 1.091-18.52-.793-1.43-1.774-2.732-2.765-4.278zm-33.94 3.038c-2.46.163-4.93 1.188-7.569 1.867 3.395 7.324 8.813 10.729 16.368 10.445 1.021-.033 2.102-.238 3.098-.617 2.282-.897 3.063-2.888 1.66-4.959-3.219-4.763-7.886-6.995-13.556-6.736zm27.036-14.003c-3.455 1.312-6.396 3.38-8.36 6.552-2.067 3.33-2.806 7.022-2.3 10.902.434 3.662 3.175 4.846 6.26 2.78 6.04-4.03 8.333-14.068 4.4-20.234zM27.69 66.54c-2.175-.797-4.487-1.056-6.751-1.591-1.176 7.46 4.414 15.49 11.214 16.66 3.314.554 5.202-1.58 4.146-5.07-1.413-4.541-4.018-8.271-8.61-9.999zm22.357-7.425c-6.888 1.853-11.926 9.881-10.61 16.649.627 3.13 2.67 4.076 5.424 2.401 5.853-3.521 8.473-12.916 5.186-19.05zM23.41 47.104c-2.042 5.79 0 12.212 4.885 15.154 1.005.589 2.634 1.053 3.521.583.872-.427 1.569-2.029 1.624-3.173.31-5.951-3.93-11.19-10.03-12.564zm26.697 1.076c-6.062-.498-12.215 4.657-12.722 10.552-.232 2.473 1.12 3.66 3.534 3.143 5.685-1.173 9.842-7.304 9.188-13.695zM29.252 30.924c-2.806 4.615-1.624 10.937 2.633 14.263 2.303 1.795 4.208 1.067 4.713-1.812 1.007-5.186-2.168-10.525-7.346-12.45zm22.21 6.058c-5.252-.842-10.468 2.099-12.393 6.994-1.125 2.85.14 4.591 3.09 4.206 5.16-.689 9.491-5.915 9.304-11.2zM36.605 19.324c-2.905 4.335-2.939 9.219.055 12.697.607.699 1.738 1.382 2.532 1.264.695-.104 1.47-1.257 1.797-2.074 1.667-4.566-.261-9.635-4.384-11.887zm19.779 8.075c-5.083-1.364-9.369.004-11.83 3.785-.542.874-1.033 2.44-.605 3.021.556.77 2.023 1.276 3.107 1.215 4.476-.098 7.955-3.19 9.328-8.02zm-5.924-5.957c-.693.734-1.422 2.284-1.091 2.885.504.806 1.944 1.448 2.951 1.503 4.264.105 7.188-2.003 8.99-6.103-4.189-1.88-8.05-1.312-10.85 1.715zm-6.343-10.696c-2.894 3.19-3.283 6.715-1.642 10.408.442.97 1.737 2.283 2.449 2.191.929-.161 2.083-1.4 2.439-2.433 1.318-3.686.027-7.548-3.246-10.166zm15.335-3.813c-4.37.446-8 4.432-7.783 8.505.115 1.8 1.226 2.564 2.995 1.983 3.977-1.296 6.335-6.434 4.788-10.488z"/>
        <g>
            <path d="M68.145 9.782c1.295 0 3.76-1.77 6.3-1.505 2.416.075 4.655 1.272 6.04 3.232-2.186 1.33-3.532 3.678-3.566 6.22.004 2.874 1.743 5.469 4.419 6.589-.515 1.654-1.29 3.217-2.298 4.632-1.354 2.004-2.773 3.962-5.026 3.998-2.189.05-2.924-1.275-5.434-1.275-2.534 0-3.318 1.239-5.418 1.325-2.145.079-3.784-2.139-5.187-4.124-2.804-4.054-4.987-11.426-2.06-16.441 1.374-2.445 3.944-3.996 6.77-4.086 2.146-.044 4.14 1.435 5.46 1.435zM74.716 0c.146 1.87-.457 3.721-1.681 5.162-1.188 1.448-2.987 2.282-4.883 2.263-.12-1.816.5-3.604 1.726-4.97C71.118 1.068 72.846.192 74.716 0zM8.315 62.25c1.905-.014 3.343-.406 4.313-1.176.97-.77 1.456-1.921 1.456-3.454 0-.845-.219-1.561-.656-2.148-.437-.588-1.063-.989-1.88-1.203.724-.273 1.272-.695 1.644-1.268.372-.573.559-1.264.559-2.073 0-1.404-.525-2.475-1.574-3.212-1.05-.738-2.58-1.107-4.592-1.107H1.966V62.25h6.349zm-.612-9.12H5.737v-3.61h1.848c.845 0 1.457.146 1.836.436.38.29.57.764.57 1.423 0 .573-.176 1.006-.527 1.3-.35.293-.938.444-1.761.45zm.505 6.22H5.737V55.6h2.642c1.297.008 1.945.663 1.945 1.966 0 .566-.183 1.005-.548 1.316-.365.312-.888.468-1.568.468zm14.006 3.115c.952 0 1.842-.185 2.67-.553.826-.37 1.466-.865 1.917-1.488l-1.655-1.955c-.644.802-1.54 1.203-2.685 1.203-.695 0-1.26-.186-1.697-.559-.437-.372-.72-.884-.849-1.536h7.197V56.17c0-1.812-.472-3.225-1.418-4.238-.945-1.013-2.234-1.52-3.867-1.52-1.16 0-2.163.249-3.008.747-.845.497-1.487 1.201-1.928 2.11-.44.91-.66 1.96-.66 3.148v.3c0 1.705.55 3.09 1.654 4.153 1.103 1.063 2.546 1.595 4.329 1.595zm1.353-7.154h-3.652c.2-1.404.83-2.106 1.89-2.106.574 0 1.014.16 1.322.478.308.319.455.768.44 1.348v.28zm10.107 7.154c1.497 0 2.716-.333 3.658-1 .942-.665 1.413-1.528 1.413-2.588 0-1.554-.874-2.632-2.622-3.233-.522-.18-1.13-.333-1.82-.462-.691-.13-1.195-.294-1.51-.494-.315-.201-.472-.462-.472-.785 0-.315.129-.578.386-.79.258-.21.577-.316.956-.316.982 0 1.472.465 1.472 1.396h3.631c0-1.131-.465-2.044-1.396-2.739-.931-.695-2.163-1.042-3.696-1.042-1.425 0-2.578.346-3.459 1.037-.88.69-1.321 1.57-1.321 2.637 0 .602.154 1.135.462 1.6.308.466.755.862 1.343 1.188.587.325 1.332.589 2.234.79.902.2 1.515.393 1.837.58.322.185.483.432.483.74 0 .323-.123.584-.37.785-.247.2-.618.3-1.112.3-.537 0-.978-.123-1.321-.37-.344-.247-.523-.64-.538-1.177H28.53c0 .68.218 1.329.655 1.945.437.616 1.046 1.103 1.826 1.46.78.359 1.669.538 2.664.538zm11.611 0c.709 0 1.39-.104 2.041-.312v-2.589c-.244.043-.544.065-.902.065-.466 0-.777-.086-.935-.258-.157-.172-.236-.476-.236-.913v-5.317h1.912v-2.514h-1.912v-2.89h-3.62v2.89H40.15v2.514h1.483v5.768c0 1.196.297 2.088.891 2.675.595.587 1.515.88 2.761.88zm15.143 0c1.72 0 3.082-.532 4.088-1.595 1.006-1.064 1.509-2.502 1.509-4.313v-.13c0-1.854-.501-3.32-1.504-4.398-1.003-1.078-2.374-1.617-4.114-1.617-1.139 0-2.13.244-2.976.73-.845.488-1.493 1.184-1.944 2.09-.451.906-.677 1.939-.677 3.1l.01.611c.08 1.698.62 3.042 1.623 4.034 1.003.992 2.331 1.488 3.985 1.488zm0-2.793c-.659 0-1.156-.25-1.493-.752-.336-.501-.505-1.29-.505-2.363l.011-.656c.1-1.797.756-2.696 1.966-2.696 1.332 0 1.998 1.042 1.998 3.126v.365c-.029 1.984-.688 2.976-1.977 2.976zm12.223 2.578v-9.11h2.267v-2.513h-2.267v-.892c0-.945.548-1.418 1.644-1.418.372 0 .67.033.892.097l-.011-2.664c-.616-.15-1.182-.226-1.697-.226-1.411 0-2.507.366-3.288 1.096-.78.73-1.17 1.758-1.17 3.083v.924h-1.687v2.514h1.687v9.109h3.63zm21.073 0v-2.793H87.57l2.02-2.331c1.074-1.074 1.853-1.932 2.336-2.573.483-.64.84-1.253 1.069-1.837.23-.583.344-1.183.344-1.799 0-1.46-.457-2.582-1.37-3.362-.913-.78-2.215-1.171-3.905-1.171-1.052 0-2.005.229-2.857.687-.852.459-1.518 1.094-1.998 1.907s-.72 1.7-.72 2.659h3.63c0-.702.173-1.288.517-1.757.343-.469.79-.703 1.342-.703.559 0 .985.175 1.279.526.293.351.44.863.44 1.536 0 .831-.62 1.952-1.858 3.363l-5.028 5.285v2.363h10.914zm7.851.215c1.726 0 3.064-.573 4.013-1.719.948-1.146 1.423-2.775 1.423-4.888v-2.846c0-2.106-.476-3.735-1.429-4.888-.952-1.153-2.295-1.73-4.028-1.73-1.733 0-3.074.573-4.023 1.72-.949 1.145-1.423 2.774-1.423 4.887v2.857c0 2.099.476 3.724 1.428 4.877.953 1.153 2.3 1.73 4.04 1.73zm0-2.793c-.637 0-1.102-.27-1.396-.811-.294-.54-.44-1.395-.44-2.562v-3.996c.021-1.046.173-1.826.456-2.342.283-.516.736-.773 1.359-.773.637 0 1.103.277 1.396.832.294.555.44 1.395.44 2.52v3.866c-.006 1.125-.157 1.95-.45 2.476-.294.527-.749.79-1.365.79zm15.94 2.578V46.61h-.333l-6.864 2.373v2.75l3.566-1.042V62.25h3.631zm10.73.215c1.103 0 2.059-.219 2.868-.655.81-.437 1.438-1.062 1.886-1.875.447-.813.67-1.72.67-2.723 0-1.662-.416-2.952-1.25-3.873-.835-.92-2.029-1.38-3.583-1.38-.401 0-.811.057-1.23.172-.419.114-.757.247-1.015.397l.354-3.104h6.199v-2.815h-9.142l-.956 7.993 2.879.676c.415-.544 1.045-.816 1.89-.816 1.49 0 2.235.834 2.235 2.503 0 1.805-.609 2.707-1.826 2.707-.537 0-.97-.168-1.3-.505-.33-.337-.512-.791-.548-1.364h-3.63c-.008.888.232 1.684.719 2.39.487.705 1.16 1.26 2.02 1.665.859.405 1.779.607 2.76.607zM20.478 89.2l1.472-4.082h6.553l1.493 4.082h2.116l-5.983-15.64h-1.805L18.35 89.2h2.127zm7.412-5.78h-5.317l2.653-7.315 2.664 7.316zm8.503 10.249v-5.597c.81.895 1.92 1.343 3.33 1.343 1.382 0 2.478-.54 3.287-1.622.81-1.082 1.214-2.507 1.214-4.276v-.182c0-1.877-.406-3.341-1.219-4.394-.813-1.053-1.918-1.579-3.314-1.579-1.44 0-2.564.501-3.373 1.504l-.097-1.289h-1.815v16.092h1.987zm2.729-5.876c-1.225 0-2.134-.53-2.729-1.59v-5.554c.602-1.067 1.504-1.6 2.707-1.6.974 0 1.74.38 2.299 1.138.559.76.838 1.794.838 3.105 0 1.49-.281 2.612-.843 3.367-.563.756-1.32 1.134-2.272 1.134zm10.114 5.876v-5.597c.81.895 1.92 1.343 3.33 1.343 1.382 0 2.478-.54 3.287-1.622.81-1.082 1.214-2.507 1.214-4.276v-.182c0-1.877-.406-3.341-1.22-4.394-.812-1.053-1.917-1.579-3.313-1.579-1.44 0-2.564.501-3.373 1.504l-.097-1.289H47.25v16.092h1.987zm2.728-5.876c-1.224 0-2.134-.53-2.728-1.59v-5.554c.601-1.067 1.504-1.6 2.707-1.6.974 0 1.74.38 2.299 1.138.558.76.838 1.794.838 3.105 0 1.49-.281 2.612-.844 3.367-.562.756-1.32 1.134-2.272 1.134zm19.348 1.622c1.654 0 2.976-.382 3.964-1.144.988-.763 1.482-1.778 1.482-3.046 0-.795-.177-1.486-.531-2.073-.355-.587-.9-1.1-1.633-1.541-.734-.44-1.751-.844-3.05-1.209-1.3-.365-2.221-.768-2.762-1.208-.54-.44-.81-.98-.81-1.617 0-.795.284-1.416.853-1.864.57-.447 1.363-.671 2.38-.671 1.095 0 1.944.27 2.546.81.601.542.902 1.285.902 2.23h2.073c0-.867-.23-1.665-.693-2.396-.462-.73-1.113-1.303-1.955-1.718-.841-.416-1.8-.623-2.873-.623-1.576 0-2.856.402-3.84 1.208-.985.806-1.478 1.824-1.478 3.056 0 1.089.403 2.004 1.209 2.745.805.741 2.093 1.366 3.862 1.874 1.41.409 2.384.822 2.921 1.241.538.419.806 1.012.806 1.778s-.29 1.371-.87 1.815c-.58.444-1.414.666-2.503.666-1.167 0-2.1-.274-2.798-.821-.698-.548-1.048-1.295-1.048-2.24h-2.073c0 .91.253 1.722.757 2.438.505.716 1.223 1.28 2.154 1.692.931.412 1.934.618 3.008.618zm11.672 0c.494 0 1.003-.072 1.525-.215v-1.611c-.4.086-.716.129-.945.129-.465 0-.795-.117-.988-.35-.194-.232-.29-.581-.29-1.047v-7.208h2.17v-1.536h-2.17v-2.814h-1.988v2.814h-2.116v1.536h2.116v7.208c0 .988.226 1.751.677 2.288.451.537 1.121.806 2.009.806zm8.847 0c1.045 0 1.97-.25 2.777-.752.805-.501 1.425-1.201 1.858-2.1.433-.899.65-1.914.65-3.046v-.14c0-1.818-.489-3.276-1.466-4.371-.978-1.096-2.258-1.644-3.84-1.644-1.025 0-1.936.247-2.735.741-.798.494-1.421 1.196-1.869 2.106-.447.91-.671 1.933-.671 3.072v.14c0 1.804.489 3.255 1.466 4.35.978 1.096 2.254 1.644 3.83 1.644zm0-1.622c-1.003 0-1.803-.39-2.401-1.171-.598-.78-.897-1.816-.897-3.105 0-1.453.3-2.57.902-3.351.602-.78 1.393-1.171 2.374-1.171 1.003 0 1.807.396 2.412 1.187s.908 1.824.908 3.1c0 1.424-.298 2.532-.892 3.324-.594.791-1.397 1.187-2.406 1.187zm10.264 1.407v-8.25c.466-1.11 1.35-1.665 2.654-1.665.35 0 .676.025.977.075v-1.847c-.2-.1-.494-.15-.88-.15-1.197 0-2.12.518-2.772 1.557l-.032-1.343h-1.934V89.2h1.987zm10.576.215c1.948 0 3.41-.749 4.383-2.245l-1.214-.946c-.365.473-.79.853-1.278 1.14-.487.286-1.081.429-1.783.429-.988 0-1.803-.353-2.444-1.058-.64-.706-.976-1.631-1.004-2.777h7.874v-.827c0-1.855-.42-3.28-1.257-4.276-.838-.995-2.013-1.493-3.524-1.493-.923 0-1.781.256-2.572.768-.792.512-1.408 1.221-1.848 2.127-.44.906-.66 1.936-.66 3.089v.365c0 1.733.494 3.117 1.482 4.152.988 1.034 2.27 1.552 3.845 1.552zm2.546-7.09h-5.822c.129-1.053.466-1.87 1.01-2.455.544-.583 1.217-.875 2.02-.875.83 0 1.489.277 1.976.832.487.555.76 1.338.816 2.348v.15z" transform="translate(87 12)"/>
        </g>
    </g>
</svg>
