<svg xmlns="http://www.w3.org/2000/svg" width="70" height="70" viewBox="0 0 70 70">
    <g fill="none" fill-rule="evenodd">
        <path stroke="#2CC1D7" stroke-width="1.406" d="M35 .703c-9.47 0-18.045 3.839-24.251 10.046C4.542 16.955.703 25.529.703 35c0 9.47 3.839 18.045 10.046 24.251C16.955 65.458 25.529 69.297 35 69.297c9.47 0 18.045-3.839 24.251-10.046C65.458 53.045 69.297 44.471 69.297 35c0-9.47-3.839-18.045-10.046-24.251C53.045 4.542 44.471.703 35 .703z"/>
        <path fill="#2CC1D7" d="M18.917 33.18c-.512-10.428 10.377-14.633 18.745-13.36 9.352 1.427 15.206 7.589 12.956 16.726-3.147 12.79-23.96 17.374-23.045 16.32 2.538-2.928 4.162-4.548 4.007-7.059-.312-5.089-12.16-2.472-12.663-12.626zM42.445 35H27.74c-.627 0-1.139.512-1.139 1.14 0 .626.512 1.14 1.14 1.14h14.705c.627 0 1.14-.514 1.14-1.14 0-.628-.513-1.14-1.14-1.14zm0-4.2H27.74c-.627 0-1.139.512-1.139 1.138 0 .628.512 1.14 1.14 1.14h14.705c.627 0 1.14-.512 1.14-1.14 0-.626-.513-1.138-1.14-1.138zm0-4.2H27.74c-.627 0-1.139.513-1.139 1.14 0 .627.512 1.14 1.14 1.14h14.705c.627 0 1.14-.513 1.14-1.14 0-.627-.513-1.14-1.14-1.14z"/>
    </g>
</svg>
