<svg xmlns="http://www.w3.org/2000/svg" width="70" height="70" viewBox="0 0 70 70">
    <g fill="none" fill-rule="evenodd">
        <path stroke="#2CC1D7" stroke-width="1.386" d="M34.644.693c-9.376 0-17.863 3.8-24.007 9.944C4.493 16.78.693 25.268.693 34.644c0 9.375 3.8 17.863 9.944 24.007 6.144 6.143 14.631 9.943 24.007 9.943 9.375 0 17.863-3.8 24.007-9.943 6.143-6.144 9.943-14.632 9.943-24.007 0-9.376-3.8-17.863-9.943-24.007C52.507 4.493 44.019.693 34.644.693z"/>
        <path fill="#2CC1D7" d="M28.705 48.501L13.857 34.51 18.015 30.593 28.705 40.666 51.273 19.4 55.43 23.318z"/>
    </g>
</svg>
