<svg xmlns="http://www.w3.org/2000/svg" width="176" height="26" viewBox="0 0 176 26">
    <path fill="#333" d="M17.196 0l6.91 6.483c3.457 3.24 6.92 6.474 10.409 9.681.021-5.239.005-10.473.01-15.707 1.44-.005 2.886-.005 4.332-.005.01 8.518-.011 17.03.01 25.548-5.874-5.468-11.634-11.053-17.46-16.568-.026 5.372 0 10.75-.01 16.127-1.402 0-2.799 0-4.196-.005-.005-8.518.006-17.036-.005-25.554zm48.61 2.099c-.02 1.52-.02 3.04-.015 4.56-2.924-2.1-6.94-3.72-10.46-2.11-1.738.813-1.965 3.347-.4 4.447 3.204 1.998 7.465 2.094 10.232 4.825 1.851 1.716 2.16 4.453 1.683 6.79-.552 2.339-2.63 4.082-4.92 4.746-4.007 1.212-8.511.558-12.117-1.498.01-1.557.016-3.114 0-4.671 3.048 2.248 7.19 3.725 10.936 2.407 2.263-.595 2.712-4.007.666-5.122-3.027-1.855-6.876-2.089-9.658-4.384-3.157-2.62-2.951-8.252.622-10.442C56.42-.866 61.811-.165 65.807 2.1zm39.56-1.525c3.968-.048 8.067 1.945 10.005 5.425 2.084 3.656 2.22 8.2.92 12.137-1.386 4.14-5.511 7.067-9.907 7.343-3.828.192-7.66.027-11.494.08 0-8.327-.005-16.653.006-24.974 3.486 0 6.978 0 10.47-.011zm36.219.01c0 1.286-.006 2.572-.006 3.858-3.746-.01-7.487-.005-11.228 0v5.835c3.335.005 6.675.005 10.016.005v3.72c-3.34 0-6.681-.006-10.016.005V21.7c3.74.01 7.487 0 11.234.006v3.852c-5.192 0-10.379.005-15.565 0V.585c5.186-.006 10.373 0 15.565 0zM164.848.6c2.978.075 6.134 1.76 6.995 4.714.768 2.566.584 5.611-1.094 7.806-1.034 1.307-2.696 1.806-4.255 2.226 3.042 3.374 6.063 6.77 9.057 10.192-1.71.032-3.416.032-5.121.005-2.902-3.385-5.858-6.722-8.776-10.085-.964.005-1.922.005-2.875.005-.01 3.363-.005 6.727-.005 10.09-1.49.006-2.978.006-4.467.006 0-8.327-.01-16.653.006-24.98 3.513.032 7.027-.032 10.535.021zM4.879.585c.011 8.32.006 16.647.006 24.974H.554c0-8.327-.006-16.653 0-24.974h4.325zm77.56 0v24.974h-4.332c0-8.327-.005-16.648 0-24.974h4.331zm16.918 3.852v17.264c3.102-.111 6.442.468 9.328-.956 2.772-1.403 4.044-4.591 3.963-7.524.113-2.966-.953-6.292-3.736-7.812-2.918-1.6-6.378-.77-9.555-.972zm59.422-.128c-.01 2.477-.005 4.953 0 7.429 2.312-.128 4.726.356 6.968-.35 2.766-1.09 2.826-5.447.103-6.611-2.253-.845-4.727-.35-7.07-.468z" opacity=".395"/>
</svg>
