<svg xmlns="http://www.w3.org/2000/svg" width="162" height="41" viewBox="0 0 162 41">
    <path fill="#333" d="M43.076 12c4.686 0 8.475 3.861 8.475 8.576v6.018c0 1.755-1.396 3.11-3.09 3.11h-7.728v2.708c0 1.303 1.047 2.357 2.343 2.357h5.933l.2 5.266-5.584.852c-5.385.903-9.074-3.761-9.074-8.475V20.576c0-4.715 3.789-8.576 8.525-8.576zM.551 1l6 .396V40h-6V1zm10.444 11.398l6.113.344V40h-6.113V12.398zM29.345 0c1.603 0 2.896.453 3.206.654l-.259 5.984h-2.948c-1.293 0-2.379 1.056-2.379 2.363v8.448h4.81v6.235h-4.81V40h-6.414V9.001C20.551 4.274 24.586 0 29.344 0zm31.309 1v11.854c1.128-.348 2.923-.498 4.154-.498 4.359 0 7.743 3.836 7.743 8.169V40h-4V20.525c0-2.142-1.795-3.835-4-3.835h-3.897V40h-4.103V1h4.103zm29.897 19.286v11.879c0 4.291-3.538 7.835-7.949 7.835-4.41 0-8.05-3.544-8.05-7.835v-2.446c0-4.292 3.025-7.536 8.05-7.536 1.898 0 2.872.2 3.949.499v-3.144c0-2.246-1.077-4.043-4-3.743h.051c-1.64.05-3.743.25-5.487.35-.05-1.448-.102-1.997-.153-3.095 1.384-.5 3.384-.998 5.076-1.048 5.129-.1 8.513 3.943 8.513 8.284zM101.526 12c4.396 0 8.025 3.475 8.025 7.794v.497c-1.584.05-2.862.05-4.038.099v-.596c0-2.085-1.79-3.822-3.987-3.822-2.147 0-3.885 1.737-3.885 3.822v12.412c0 2.184 1.738 3.822 3.885 3.822s3.936-1.588 3.987-3.674c1.993.15 3.885.249 4.038.249-.204 4.12-3.782 7.397-8.025 7.397-4.396 0-7.975-3.475-7.975-7.794V19.794c0-4.319 3.579-7.794 7.975-7.794zm27.425.685l-7.55 12.784L129.551 40h-4.4l-7.6-13.233c-.75-1.298-.75-1.448.15-2.996l6.7-11.086h4.55zM116.551 1v39h-4V1h4zm41.195 11.002c1.659.05 2.683.453 3.805 1.007-.049 1.209-.097 2.216-.146 3.122l-4.244-.1c-2.049 0-3.707 2.266-3.707 4.33V40h-3.903V20.361c0-4.381 3.317-8.46 8.195-8.36zM137.576 12c4.397 0 7.975 3.53 7.975 7.855v6.116c0 1.143-.92 1.988-2.045 1.988h-9.865v4.226c0 2.138 1.738 3.878 3.936 3.878h5.163c.05 1.293.102 2.188.204 3.082l-4.907.746c-5.01.845-8.486-3.38-8.486-7.706v-12.33c0-4.325 3.579-7.855 8.026-7.855zM86.552 25.427h-3.949c-2.205 0-3.948 1.697-3.948 3.843v2.895c0 2.145 1.743 3.892 3.948 3.892 2.206 0 3.949-1.747 3.949-3.892v-6.738zm51.026-9.45c-2.198 0-3.936 1.74-3.936 3.878v4.176h7.872v-4.176c0-2.138-1.79-3.878-3.936-3.878zm-94.5 2.242c-1.297 0-2.344 1.053-2.344 2.357v2.908h4.637v-2.908c0-1.304-1.047-2.357-2.294-2.357zM14.05 4c1.923 0 3.5 1.572 3.5 3.487 0 1.916-1.577 3.487-3.5 3.487-1.922 0-3.5-1.571-3.5-3.487 0-1.915 1.578-3.487 3.5-3.487z" opacity=".395"/>
</svg>
