<svg xmlns="http://www.w3.org/2000/svg" width="195" height="33" viewBox="0 0 195 33">
    <path fill="#333" d="M49.983 8C55.659 8 61 10.125 61 17.52v14.89h-7.543v-2.37C51.99 31.813 49.155 33 46.118 33 42.497 33 38 30.482 38 25.155c0-5.764 4.494-7.684 8.118-7.684 3.14 0 5.926 1.03 7.339 2.809v-2.368c0-2.07-1.755-3.5-4.794-3.5-2.35 0-4.699.934-6.604 2.563l-2.787-5.278C42.31 9.085 46.368 8 49.982 8zm23.115 0c4.047 0 7.4 1.282 9.967 3.153l-2.903 5.384c-1.434-1.387-4.148-2.621-7.006-2.621-1.78 0-2.961.692-2.961 1.629 0 2.612 13.805-.096 13.805 9.668C84 29.741 80.01 33 73.201 33c-4.289 0-8.679-1.433-11.201-3.697l3.158-5.42c1.779 1.572 5.572 3.201 8.391 3.201 2.266 0 3.203-.647 3.203-1.677 0-2.957-13.86.096-13.86-9.565C62.892 11.65 66.543 8 73.098 8zm48.895 0C127.668 8 133 10.125 133 17.52v14.89h-7.532v-2.37c-1.47 1.772-4.312 2.96-7.34 2.96-3.624 0-8.128-2.518-8.128-7.845 0-5.764 4.504-7.684 8.129-7.684 3.13 0 5.917 1.03 7.34 2.809v-2.368c0-2.07-1.768-3.5-4.795-3.5-2.35 0-4.702.934-6.614 2.563l-2.788-5.278C114.31 9.085 118.37 8 121.993 8zm20.553-8v11.714c1.68-2.144 4.276-3.385 7.014-3.354 5.926 0 10.44 4.62 10.44 12.295C160 28.626 155.393 33 149.56 33c-2.65 0-5.052-1.07-7.014-3.304v2.723H135V0h7.546zm40.672 8C190.036 8 195 13.175 195 21.262v1.732h-16.41c.524 2.116 2.435 3.894 5.769 3.894 1.622 0 4.293-.74 5.633-2.022l3.188 4.978C190.896 31.96 187.076 33 183.552 33 176.444 33 171 28.218 171 20.476 171 13.578 176.008 8 183.218 8zM11.686 0l6.834 17.656L25.314 0H37v32h-8.41V10.845L20.378 32h-3.71L8.41 10.845V32H0V0h11.686zM92.37 0v11.656c1.38-1.632 4.113-3.404 7.979-3.404 5.265 0 7.651 2.975 7.651 7.246V32h-7.36V18.51c0-2.821-1.48-3.733-3.832-3.733-2.15 0-3.583 1.194-4.438 2.25v14.97H85V0h7.37zM169 0v32h-7V0h7zM49.257 22.496c-1.959 0-3.771.891-3.771 2.762 0 1.872 1.812 2.763 3.771 2.763 1.656 0 3.42-.592 4.2-1.725v-2.123c-.78-1.133-2.544-1.677-4.2-1.677zm72.002 0c-1.96 0-3.772.891-3.772 2.762 0 1.872 1.812 2.763 3.772 2.763 1.664 0 3.427-.592 4.21-1.725v-2.123c-.783-1.133-2.546-1.677-4.21-1.677zm25.798-7.532c-1.62 0-3.573.876-4.511 2.14V24.3c.938 1.263 2.894 2.094 4.511 2.094 2.987 0 5.247-2.196 5.247-5.739 0-3.495-2.26-5.691-5.247-5.691zm36.16-.852c-3.198 0-4.436 1.975-4.729 3.697h9.501c-.197-1.677-1.384-3.697-4.771-3.697z" opacity=".4"/>
</svg>
