<svg xmlns="http://www.w3.org/2000/svg" width="184" height="26" viewBox="0 0 184 26">
    <path fill="#333" fill-rule="evenodd" d="M26 0v8.666h-8.687V26H8.656V8.666H0V0h26zm7.656 9v8.5H51V26H25V9h8.656zm44.598 1.432c3.116 0 5.04 2.077 5.01 6.323 0 .273 0 .486-.016.656l-.015.119h-6.628c.152 1.27.885 1.829 1.924 1.829.924 0 1.669-.182 2.657-.667l.276-.14 1.466 2.512c-1.375.836-2.81 1.301-4.582 1.301-3.391 0-5.254-2.448-5.254-5.95 0-3.968 2.2-5.983 5.162-5.983zm38.612-3.812c3.594 0 5.08 1.523 6.114 4.257l.087.237-3.788 1.519c-.519-1.426-1.038-2.325-2.413-2.325-1.741 0-2.505 1.767-2.505 4.185 0 2.324.733 4.184 2.536 4.184 1.248 0 1.806-.644 2.566-1.93l.122-.209 3.513 1.89c-1.008 1.985-2.688 3.937-6.262 3.937-4.46 0-6.843-3.347-6.843-7.872 0-4.898 2.84-7.873 6.873-7.873zm22.422 4.06v6.509c0 1.457.489 1.86 1.283 1.86.758 0 1.238-.367 1.28-1.64l.003-.189h.03v-6.509h3.88v11.437h-3.88v-.775c-.672.528-1.497.992-2.81.992-2.4 0-3.592-1.574-3.662-4.41l-.004-.27V10.68h3.88zm-48.693-.248c2.05 0 3.257.911 4.215 2.405l.123.199-2.657 2.046c-.55-1.024-.917-1.488-1.742-1.488-1.008 0-1.497 1.022-1.497 2.82 0 1.829.55 2.759 1.589 2.759.687 0 1.16-.355 1.82-1.318l.135-.2 2.443 1.952c-1.313 1.952-2.535 2.727-4.52 2.727-3.3 0-5.285-2.138-5.285-5.982 0-3.502 1.772-5.92 5.376-5.92zm75.941 0c2.05 0 3.257.911 4.215 2.405l.123.199-2.657 2.046c-.55-1.024-.917-1.488-1.742-1.488-.978 0-1.466 1.022-1.466 2.82 0 1.829.55 2.759 1.589 2.759.687 0 1.186-.355 1.8-1.318l.124-.2 2.444 1.952c-1.314 1.952-2.536 2.727-4.521 2.727-3.3 0-5.285-2.138-5.285-5.982 0-3.502 1.772-5.92 5.376-5.92zm10.54-4.184v5.176c.702-.527 1.496-.992 2.84-.992 2.402 0 3.595 1.606 3.635 4.45v7.266h-3.88V15.64c0-1.456-.488-1.86-1.282-1.86-.788 0-1.269.368-1.31 1.641l-.004.188v6.54h-3.88V7.828l3.88-1.58zm-75.972 0v5.176c.702-.527 1.497-.992 2.84-.992 2.37 0 3.562 1.603 3.632 4.442l.004.27v7.004h-3.88V15.64c0-1.456-.488-1.86-1.283-1.86-.787 0-1.268.368-1.31 1.641l-.003.188v6.54h-3.88V7.828l3.88-1.58zm30.639 4.184c.742 0 1.262.176 1.692.414l.14.082-.916 4.06c-.488-.557-1.038-.96-1.802-.96-.904 0-1.474.423-1.524 1.675l-.003.184v6.23h-3.88V10.68h3.88v.837c.641-.65 1.405-1.085 2.413-1.085zm23.521 0c2.4 0 3.564 1.603 3.632 4.385l.003.264v7.005h-3.88v-6.509c0-1.456-.488-1.86-1.282-1.86-.787 0-1.269.368-1.31 1.641l-.004.188v6.54h-3.88V10.65h3.88v.775c.703-.527 1.497-.992 2.841-.992zM73 7v3.628h-4.354V22h-4.292V10.628H60V7h13zm5.163 6.346c-.834 0-1.316.521-1.472 1.539l-.025.197h3.207c-.183-1.147-.58-1.736-1.71-1.736zM51 0v9H34V0h17z" opacity=".395"/>
</svg>
