<svg xmlns="http://www.w3.org/2000/svg" width="70" height="70" viewBox="0 0 70 70">
    <g fill="none" fill-rule="evenodd">
        <path stroke="#2CC1D7" stroke-width="1.386" d="M34.644.693c-9.376 0-17.863 3.8-24.007 9.944C4.493 16.78.693 25.268.693 34.644c0 9.375 3.8 17.863 9.944 24.007 6.144 6.143 14.631 9.943 24.007 9.943 9.375 0 17.863-3.8 24.007-9.943 6.143-6.144 9.943-14.632 9.943-24.007 0-9.376-3.8-17.863-9.943-24.007C52.507 4.493 44.019.693 34.644.693z"/>
        <path fill="#2CC1D7" d="M35.959 39.323l-3.84-3.826.045-.045c2.63-2.958 4.505-6.357 5.609-9.954h4.43v-3.049H31.62V19.4h-3.023v3.05H18.015v3.032H34.9c-1.013 2.942-2.616 5.732-4.793 8.17-1.405-1.57-2.57-3.292-3.492-5.106h-3.023c1.104 2.485 2.615 4.832 4.505 6.951l-7.695 7.652 2.147 2.165 7.558-7.622 4.702 4.74 1.149-3.109zm8.51-7.728h-3.023l-6.802 18.292h3.023l1.693-4.573h7.18l1.71 4.573h3.023L44.47 31.595zm-3.96 10.67l2.45-6.6 2.448 6.6H40.51z"/>
    </g>
</svg>
